<svg width="360" height="360" viewBox="0 0 360 360" fill="none" xmlns="http://www.w3.org/2000/svg">
  <rect width="360" height="360" rx="32" fill="#0F1220"/>
  <rect x="24" y="24" width="312" height="312" rx="24" fill="#F5F7FB"/>
  <rect x="50" y="50" width="72" height="72" rx="12" fill="#0A0B10"/>
  <rect x="61" y="61" width="50" height="50" rx="8" fill="#F5F7FB"/>
  <rect x="72" y="72" width="28" height="28" rx="4" fill="#0A0B10"/>
  <rect x="238" y="50" width="72" height="72" rx="12" fill="#0A0B10"/>
  <rect x="249" y="61" width="50" height="50" rx="8" fill="#F5F7FB"/>
  <rect x="260" y="72" width="28" height="28" rx="4" fill="#0A0B10"/>
  <rect x="50" y="238" width="72" height="72" rx="12" fill="#0A0B10"/>
  <rect x="61" y="249" width="50" height="50" rx="8" fill="#F5F7FB"/>
  <rect x="72" y="260" width="28" height="28" rx="4" fill="#0A0B10"/>
  <rect x="152" y="56" width="14" height="14" rx="3" fill="#0A0B10"/>
  <rect x="176" y="56" width="14" height="14" rx="3" fill="#0A0B10"/>
  <rect x="200" y="56" width="14" height="14" rx="3" fill="#0A0B10"/>
  <rect x="152" y="80" width="14" height="14" rx="3" fill="#0A0B10"/>
  <rect x="200" y="80" width="14" height="14" rx="3" fill="#0A0B10"/>
  <rect x="144" y="144" width="18" height="18" rx="4" fill="#0A0B10"/>
  <rect x="170" y="144" width="18" height="18" rx="4" fill="#0A0B10"/>
  <rect x="196" y="144" width="18" height="18" rx="4" fill="#0A0B10"/>
  <rect x="222" y="144" width="18" height="18" rx="4" fill="#0A0B10"/>
  <rect x="248" y="144" width="18" height="18" rx="4" fill="#0A0B10"/>
  <rect x="144" y="170" width="18" height="18" rx="4" fill="#0A0B10"/>
  <rect x="196" y="170" width="18" height="18" rx="4" fill="#0A0B10"/>
  <rect x="248" y="170" width="18" height="18" rx="4" fill="#0A0B10"/>
  <rect x="274" y="170" width="18" height="18" rx="4" fill="#0A0B10"/>
  <rect x="144" y="196" width="18" height="18" rx="4" fill="#0A0B10"/>
  <rect x="170" y="196" width="18" height="18" rx="4" fill="#0A0B10"/>
  <rect x="222" y="196" width="18" height="18" rx="4" fill="#0A0B10"/>
  <rect x="274" y="196" width="18" height="18" rx="4" fill="#0A0B10"/>
  <rect x="144" y="222" width="18" height="18" rx="4" fill="#0A0B10"/>
  <rect x="196" y="222" width="18" height="18" rx="4" fill="#0A0B10"/>
  <rect x="222" y="222" width="18" height="18" rx="4" fill="#0A0B10"/>
  <rect x="248" y="222" width="18" height="18" rx="4" fill="#0A0B10"/>
  <rect x="274" y="222" width="18" height="18" rx="4" fill="#0A0B10"/>
  <rect x="144" y="248" width="18" height="18" rx="4" fill="#0A0B10"/>
  <rect x="170" y="248" width="18" height="18" rx="4" fill="#0A0B10"/>
  <rect x="222" y="248" width="18" height="18" rx="4" fill="#0A0B10"/>
  <rect x="274" y="248" width="18" height="18" rx="4" fill="#0A0B10"/>
  <rect x="170" y="274" width="18" height="18" rx="4" fill="#0A0B10"/>
  <rect x="196" y="274" width="18" height="18" rx="4" fill="#0A0B10"/>
  <rect x="248" y="274" width="18" height="18" rx="4" fill="#0A0B10"/>
  <path d="M122 24H238" stroke="#6E63FF" stroke-opacity="0.32" stroke-width="2"/>
</svg>
